<?xml version="1.0" encoding="UTF-8" standalone="no"?>
<!-- Created with Inkscape (http://www.inkscape.org/) -->

<svg
   width="297mm"
   height="210mm"
   viewBox="0 0 297 210"
   version="1.1"
   id="svg1"
   inkscape:version="1.3.2 (091e20e, 2023-11-25, custom)"
   sodipodi:docname="FIRNESSTAN BARA LOGO.svg"
   xmlns:inkscape="http://www.inkscape.org/namespaces/inkscape"
   xmlns:sodipodi="http://sodipodi.sourceforge.net/DTD/sodipodi-0.dtd"
   xmlns="http://www.w3.org/2000/svg"
   xmlns:svg="http://www.w3.org/2000/svg">
  <sodipodi:namedview
     id="namedview1"
     pagecolor="#505050"
     bordercolor="#eeeeee"
     borderopacity="1"
     inkscape:showpageshadow="0"
     inkscape:pageopacity="0"
     inkscape:pagecheckerboard="0"
     inkscape:deskcolor="#505050"
     inkscape:document-units="mm"
     inkscape:zoom="0.48907828"
     inkscape:cx="698.25223"
     inkscape:cy="348.61495"
     inkscape:window-width="1366"
     inkscape:window-height="745"
     inkscape:window-x="-8"
     inkscape:window-y="-8"
     inkscape:window-maximized="1"
     inkscape:current-layer="layer1" />
  <defs
     id="defs1">
    <filter
       inkscape:collect="always"
       style="color-interpolation-filters:sRGB"
       id="filter6"
       x="-0.031045477"
       y="-0.03077555"
       width="1.062091"
       height="1.0615511">
      <feGaussianBlur
         inkscape:collect="always"
         stdDeviation="1.1322592"
         id="feGaussianBlur6" />
    </filter>
    <filter
       inkscape:collect="always"
       style="color-interpolation-filters:sRGB"
       id="filter7"
       x="-0.027013886"
       y="-0.026765269"
       width="1.0540278"
       height="1.0535305">
      <feGaussianBlur
         inkscape:collect="always"
         stdDeviation="0.93740865"
         id="feGaussianBlur7" />
    </filter>
    <clipPath
       clipPathUnits="userSpaceOnUse"
       id="clipPath3">
      <path
         style="fill:#ffffff;fill-rule:evenodd;stroke-width:0.499999"
         d="m 77.368898,151.8139 7.497601,-6.87979 27.757091,-0.9173 5.58332,7.56776 v 7.10911 l -26.002325,-0.68797 v 2.06393 h 0.957143 l -2.711908,16.97013 -3.349986,29.35375 -10.688076,1.14663 2.552374,-32.79364 H 75.61414 l 0.957138,-6.42113 2.711902,-0.68798 1.595232,-8.7144 -7.019033,-2.06393 z"
         id="path4" />
    </clipPath>
    <filter
       inkscape:collect="always"
       style="color-interpolation-filters:sRGB"
       id="filter5"
       x="-0.062558116"
       y="-0.042092089"
       width="1.1251162"
       height="1.0841842">
      <feGaussianBlur
         inkscape:collect="always"
         stdDeviation="1.0434669"
         id="feGaussianBlur5" />
    </filter>
    <clipPath
       clipPathUnits="userSpaceOnUse"
       id="clipPath3-6">
      <path
         style="fill:#ffffff;fill-rule:evenodd;stroke-width:0.499999"
         d="m 77.368898,151.8139 7.497601,-6.87979 27.757091,-0.9173 5.58332,7.56776 v 7.10911 l -26.002325,-0.68797 v 2.06393 h 0.957143 l -2.711908,16.97013 -3.349986,29.35375 -10.688076,1.14663 2.552374,-32.79364 H 75.61414 l 0.957138,-6.42113 2.711902,-0.68798 1.595232,-8.7144 -7.019033,-2.06393 z"
         id="path4-8" />
    </clipPath>
    <filter
       inkscape:collect="always"
       style="color-interpolation-filters:sRGB"
       id="filter4"
       x="-0.099868462"
       y="-0.12469201"
       width="1.1997369"
       height="1.249384">
      <feGaussianBlur
         inkscape:collect="always"
         stdDeviation="2.179201"
         id="feGaussianBlur4" />
    </filter>
    <filter
       inkscape:collect="always"
       style="color-interpolation-filters:sRGB"
       id="filter2"
       x="-0.015386198"
       y="-0.13983339"
       width="1.0307724"
       height="1.2796668">
      <feGaussianBlur
         inkscape:collect="always"
         stdDeviation="1.4299568"
         id="feGaussianBlur2" />
    </filter>
  </defs>
  <g
     inkscape:label="Layer 1"
     inkscape:groupmode="layer"
     id="layer1">
    <g
       id="g7"
       transform="matrix(0.57738604,0,0,0.57738604,0.12351395,9.2566598)">
      <ellipse
         style="fill:#ff0000;fill-rule:evenodd;stroke-width:0.499999"
         id="path1"
         cx="123.17568"
         cy="152.63074"
         rx="45.90398"
         ry="46.286514" />
      <path
         id="path1-8-1"
         style="fill:#000000;fill-rule:evenodd;stroke-width:0.499999;filter:url(#filter6)"
         d="m 122.66284,108.52089 c -13.68118,0.15272 -27.109777,7.17981 -34.952849,18.40537 -7.14467,9.98812 -9.84808,23.01566 -7.232511,35.01819 2.54778,12.18745 10.494299,23.15401 21.38207,29.22853 9.14337,5.16679 20.18383,6.92928 30.45788,4.67924 11.77375,-2.47746 22.36665,-10.06832 28.44881,-20.4565 5.74779,-9.608 7.67905,-21.42445 5.21328,-32.35194 -2.2761,-10.46593 -8.4926,-20.03126 -17.21978,-26.25879 -7.52067,-5.45518 -16.79969,-8.43042 -26.0969,-8.2641 z" />
      <path
         id="path1-8"
         style="fill:#ffffff;fill-rule:evenodd;stroke-width:0.499999"
         d="m 122.54102,108.50391 c -13.68118,0.15272 -27.109778,7.17981 -34.95285,18.40537 -7.14467,9.98812 -9.84808,23.01566 -7.232511,35.01819 2.54778,12.18745 10.494299,23.15401 21.382071,29.22853 9.14337,5.16679 20.18383,6.92928 30.45788,4.67924 11.77375,-2.47746 22.36665,-10.06832 28.44881,-20.4565 5.74779,-9.608 7.67905,-21.42445 5.21328,-32.35194 -2.2761,-10.46593 -8.4926,-20.03126 -17.21978,-26.25879 -7.52067,-5.45518 -16.79969,-8.43042 -26.0969,-8.2641 z" />
      <path
         id="path1-8-3-6"
         style="fill:#000000;fill-rule:evenodd;stroke-width:0.499999;filter:url(#filter7)"
         d="m 122.63396,110.86416 c -13.24552,0.15637 -26.259272,7.04374 -33.68794,18.03719 -6.720557,9.72134 -9.097637,22.32054 -6.30788,33.81106 2.765512,11.72249 10.772945,22.16649 21.56207,27.5997 8.95007,4.61445 19.61081,5.87905 29.35182,3.25425 10.30164,-2.6668 19.46895,-9.44257 24.97794,-18.55484 5.69904,-9.24785 7.63316,-20.726 5.23792,-31.32539 -2.27576,-10.5147 -8.79701,-20.02847 -17.79085,-25.93425 -6.86554,-4.54929 -15.10417,-7.00089 -23.34308,-6.88772 z" />
      <path
         id="path1-8-3"
         style="fill:#ff0000;fill-rule:evenodd;stroke-width:0.499999"
         d="m 122.68164,110.60938 c -13.24549,0.15637 -26.259187,7.04374 -33.687855,18.03719 -6.720557,9.72134 -9.097637,22.32054 -6.30788,33.81106 2.765512,11.72249 10.772945,22.16649 21.562045,27.5997 8.95002,4.61445 19.61075,5.87905 29.35176,3.25425 10.30163,-2.6668 19.46894,-9.44257 24.97793,-18.55484 5.69904,-9.24785 7.63316,-20.726 5.23792,-31.32539 -2.27576,-10.5147 -8.79701,-20.02847 -17.79085,-25.93425 -6.86554,-4.54929 -15.10416,-7.00089 -23.34307,-6.88772 z" />
      <text
         xml:space="preserve"
         style="font-style:normal;font-variant:normal;font-weight:normal;font-stretch:normal;font-size:63.6741px;line-height:114.613px;font-family:Showdex;-inkscape-font-specification:Showdex;text-align:center;text-anchor:middle;fill:#000000;fill-rule:evenodd;stroke-width:22.5617;filter:url(#filter5)"
         x="95.248039"
         y="200.22878"
         id="text1"
         transform="matrix(1.5238809,0,0,1.020494,-24.848957,-28.792936)"
         clip-path="url(#clipPath3)"><tspan
           sodipodi:role="line"
           id="tspan1"
           style="font-style:normal;font-variant:normal;font-weight:normal;font-stretch:normal;font-family:Showdex;-inkscape-font-specification:Showdex;fill:#000000;stroke-width:22.5617"
           x="95.248039"
           y="200.22878">F</tspan></text>
      <text
         xml:space="preserve"
         style="font-style:normal;font-variant:normal;font-weight:normal;font-stretch:normal;font-size:63.6741px;line-height:114.613px;font-family:Showdex;-inkscape-font-specification:Showdex;text-align:center;text-anchor:middle;fill:#ffffff;fill-rule:evenodd;stroke-width:22.5617"
         x="95.248039"
         y="200.22878"
         id="text1-8"
         transform="matrix(1.5238809,0,0,1.020494,-25.161576,-28.858201)"
         clip-path="url(#clipPath3-6)"><tspan
           sodipodi:role="line"
           id="tspan1-2"
           style="font-style:normal;font-variant:normal;font-weight:normal;font-stretch:normal;font-family:Showdex;-inkscape-font-specification:Showdex;fill:#ffffff;stroke-width:22.5617"
           x="95.248039"
           y="200.22878">F</tspan></text>
      <path
         style="fill:#000000;fill-rule:evenodd;stroke-width:0.7037;filter:url(#filter4)"
         d="m 132.46887,147.41592 c 0.57271,-0.69159 0.40402,-1.77477 0.37922,-2.6752 -0.009,-0.32465 -0.0438,-0.66581 -0.18962,-0.95542 -0.23283,-0.4623 -0.87051,-0.65803 -1.04284,-1.14651 -0.18027,-0.51102 -0.37842,-1.3659 0.0947,-1.62423 0.22402,-0.12235 0.70981,0.63468 0.66364,0.38217 -0.02,-0.10992 -0.50892,-1.87712 -0.28442,-2.86629 0.21466,-0.94574 0.43899,-2.00775 1.13766,-2.67518 0.73283,-0.7001 1.83457,-1.0304 2.84413,-1.05097 0.92923,-0.0189 1.91814,0.28839 2.65452,0.85989 0.74314,0.57676 1.23478,1.48703 1.51687,2.38856 0.22829,0.72959 0.22278,1.53897 0.0947,2.29302 -0.0861,0.50714 -0.22816,1.18518 -0.56882,1.43314 0.19288,-0.32895 0.5061,-0.92144 0.85324,-0.76434 0.5189,0.23484 0.20513,1.18508 0,1.71976 -0.16939,0.4416 -0.76151,0.61646 -0.94804,1.05098 -0.47828,1.11418 -1.01381,2.6645 -0.28442,3.63062 0.6042,0.80029 1.94215,0.61918 2.93894,0.57326 1.01902,-0.0469 1.38502,-1.05851 3.47522,-1.13013 2.78867,-0.0955 2.88615,1.99975 3.94054,1.68699 1.17415,-0.34831 2.89666,-1.12541 3.86594,-0.93904 1.73882,0.33434 2.93893,2.19748 2.93893,2.19748 0,0 -0.75126,-1.49226 -0.78213,-2.38856 -0.0202,-0.58688 0.43293,-1.3244 0.40291,-1.91086 -0.072,-1.40808 -0.16173,-3.23289 -1.32725,-4.01279 -0.68652,-0.45939 -1.73276,0.57224 -2.46491,0.19109 -0.16372,-0.0852 -0.12197,-0.39008 -0.28441,-0.47771 -0.58576,-0.31595 -1.44004,0.46985 -1.9909,0.0955 -0.55518,-0.3773 -0.77274,-1.24504 -0.66363,-1.91086 0.15041,-0.91771 0.83188,-1.90038 1.70648,-2.19749 1.88852,-0.64152 4.22474,0.27674 5.78306,1.5287 2.50893,2.01565 3.49599,5.51331 4.4558,8.59882 0.60032,1.92991 1.82248,4.30436 0.75844,6.0192 -1.0438,1.68222 -3.66784,1.49808 -5.59346,1.91086 -1.67628,0.35931 -3.41013,0.6024 -5.11943,0.4777 -0.9403,-0.0685 -1.84179,-0.92612 -2.74932,-0.66879 -0.34417,0.0976 -0.57365,0.45589 -0.75844,0.76434 -0.49594,0.82786 -0.38688,1.92558 -0.85323,2.77074 -0.30485,0.55247 -0.92368,0.88287 -1.23245,1.43314 -0.75263,1.3413 -0.59659,3.09792 -1.42206,4.39496 -0.30184,0.47427 -1.03859,0.61803 -1.23246,1.14652 -0.56275,1.53394 0.56882,4.87268 0.56882,4.87268 l -6.82592,6.3058 -7.96355,-6.21026 c 0,0 1.14191,-3.62989 0.47402,-5.25485 -0.28335,-0.68941 -1.24675,-0.84817 -1.70646,-1.43316 -0.26324,-0.33494 -0.41514,-0.74828 -0.56884,-1.14649 -0.3336,-0.86433 -0.35719,-1.84058 -0.75843,-2.6752 -0.42445,-0.88293 -1.31422,-1.49064 -1.70648,-2.38857 -0.31214,-0.71458 0.0534,-1.72119 -0.47401,-2.29302 -0.15664,-0.16982 -0.43359,-0.19411 -0.66363,-0.19108 -1.15929,0.0153 -2.06399,0.56563 -3.22337,0.57325 -1.31968,0.009 -2.62776,-0.27067 -3.88696,-0.6688 -1.84027,-0.58187 -4.27739,-0.31085 -5.49865,-1.81531 -1.02754,-1.26581 -0.77587,-3.25061 -0.56881,-4.87268 0.19917,-1.56029 0.98205,-3.00145 1.70646,-4.39497 0.97214,-1.86998 1.82656,-3.99547 3.50776,-5.25483 1.46006,-1.0937 3.49164,-2.21375 5.21424,-1.62423 0.88006,0.30118 1.36395,1.39023 1.61167,2.29302 0.10978,0.40022 0.14913,0.90739 -0.0947,1.24205 -0.20149,0.27645 -0.61174,0.32935 -0.94804,0.38218 -0.43825,0.0688 -1.00266,-0.40013 -1.32727,-0.0955 -0.13878,0.13027 0.12254,0.42745 0,0.57325 -0.24849,0.29563 -0.7627,0.27669 -1.13765,0.19109 -0.37621,-0.0859 -0.57858,-0.78056 -0.94804,-0.6688 -1.56252,0.47262 -1.77833,2.94212 -1.80128,4.58604 -0.005,0.37274 0.32682,0.68197 0.37922,1.05097 0.13907,0.97935 0.16697,2.18405 -0.18961,2.96183 0.73862,-1.08921 2.3044,-1.7062 3.36555,-1.8392 1.10118,-0.13804 2.51661,1.02702 3.34184,1.21818 0.52642,0.12193 0.98702,-1.47125 2.10941,-1.76755 0.91711,-0.2421 1.9405,-0.28903 2.84412,0 0.62676,0.20049 0.96113,1.0498 1.61168,1.14652 0.98863,0.14696 2.20383,-0.18223 2.84416,-0.95543 z"
         id="path2"
         sodipodi:nodetypes="sssssssssssscsssssssscssssssssssssssssssscccssssssssssssssssssssssscssssss" />
      <path
         style="fill:#ffffff;fill-rule:evenodd;stroke-width:0.7037"
         d="m 132.40664,147.24072 c 0.57271,-0.69159 0.40402,-1.77477 0.37922,-2.6752 -0.009,-0.32465 -0.0438,-0.66581 -0.18962,-0.95542 -0.23283,-0.4623 -0.87051,-0.65803 -1.04284,-1.14651 -0.18027,-0.51102 -0.37842,-1.3659 0.0947,-1.62423 0.22402,-0.12235 0.70981,0.63468 0.66364,0.38217 -0.02,-0.10992 -0.50892,-1.87712 -0.28442,-2.86629 0.21466,-0.94574 0.43899,-2.00775 1.13766,-2.67518 0.73283,-0.7001 1.83457,-1.0304 2.84413,-1.05097 0.92923,-0.0189 1.91814,0.28839 2.65452,0.85989 0.74314,0.57676 1.23478,1.48703 1.51687,2.38856 0.22829,0.72959 0.22278,1.53897 0.0947,2.29302 -0.0861,0.50714 -0.22816,1.18518 -0.56882,1.43314 0.19288,-0.32895 0.5061,-0.92144 0.85324,-0.76434 0.5189,0.23484 0.20513,1.18508 0,1.71976 -0.16939,0.4416 -0.76151,0.61646 -0.94804,1.05098 -0.47828,1.11418 -1.01381,2.6645 -0.28442,3.63062 0.6042,0.80029 1.94215,0.61918 2.93894,0.57326 1.01902,-0.0469 1.38502,-1.05851 3.47522,-1.13013 2.78867,-0.0955 2.88615,1.99975 3.94054,1.68699 1.17415,-0.34831 2.89666,-1.12541 3.86594,-0.93904 1.73882,0.33434 2.93893,2.19748 2.93893,2.19748 0,0 -0.75126,-1.49226 -0.78213,-2.38856 -0.0202,-0.58688 0.43293,-1.3244 0.40291,-1.91086 -0.072,-1.40808 -0.16173,-3.23289 -1.32725,-4.01279 -0.68652,-0.45939 -1.73276,0.57224 -2.46491,0.19109 -0.16372,-0.0852 -0.12197,-0.39008 -0.28441,-0.47771 -0.58576,-0.31595 -1.44004,0.46985 -1.9909,0.0955 -0.55518,-0.3773 -0.77274,-1.24504 -0.66363,-1.91086 0.15041,-0.91771 0.83188,-1.90038 1.70648,-2.19749 1.88852,-0.64152 4.22474,0.27674 5.78306,1.5287 2.50893,2.01565 3.49599,5.51331 4.4558,8.59882 0.60032,1.92991 1.82248,4.30436 0.75844,6.0192 -1.0438,1.68222 -3.66784,1.49808 -5.59346,1.91086 -1.67628,0.35931 -3.41013,0.6024 -5.11943,0.4777 -0.9403,-0.0685 -1.84179,-0.92612 -2.74932,-0.66879 -0.34417,0.0976 -0.57365,0.45589 -0.75844,0.76434 -0.49594,0.82786 -0.38688,1.92558 -0.85323,2.77074 -0.30485,0.55247 -0.92368,0.88287 -1.23245,1.43314 -0.75263,1.3413 -0.59659,3.09792 -1.42206,4.39496 -0.30184,0.47427 -1.03859,0.61803 -1.23246,1.14652 -0.56275,1.53394 0.56882,4.87268 0.56882,4.87268 l -6.82592,6.3058 -7.96355,-6.21026 c 0,0 1.14191,-3.62989 0.47402,-5.25485 -0.28335,-0.68941 -1.24675,-0.84817 -1.70646,-1.43316 -0.26324,-0.33494 -0.41514,-0.74828 -0.56884,-1.14649 -0.3336,-0.86433 -0.35719,-1.84058 -0.75843,-2.6752 -0.42445,-0.88293 -1.31422,-1.49064 -1.70648,-2.38857 -0.31214,-0.71458 0.0534,-1.72119 -0.47401,-2.29302 -0.15664,-0.16982 -0.43359,-0.19411 -0.66363,-0.19108 -1.15929,0.0153 -2.06399,0.56563 -3.22337,0.57325 -1.31968,0.009 -2.62776,-0.27067 -3.88696,-0.6688 -1.84027,-0.58187 -4.27739,-0.31085 -5.49865,-1.81531 -1.02754,-1.26581 -0.77587,-3.25061 -0.56881,-4.87268 0.19917,-1.56029 0.98205,-3.00145 1.70646,-4.39497 0.97214,-1.86998 1.82656,-3.99547 3.50776,-5.25483 1.46006,-1.0937 3.49164,-2.21375 5.21424,-1.62423 0.88006,0.30118 1.36395,1.39023 1.61167,2.29302 0.10978,0.40022 0.14913,0.90739 -0.0947,1.24205 -0.20149,0.27645 -0.61174,0.32935 -0.94804,0.38218 -0.43825,0.0688 -1.00266,-0.40013 -1.32727,-0.0955 -0.13878,0.13027 0.12254,0.42745 0,0.57325 -0.24849,0.29563 -0.7627,0.27669 -1.13765,0.19109 -0.37621,-0.0859 -0.57858,-0.78056 -0.94804,-0.6688 -1.56252,0.47262 -1.77833,2.94212 -1.80128,4.58604 -0.005,0.37274 0.32682,0.68197 0.37922,1.05097 0.13907,0.97935 0.16697,2.18405 -0.18961,2.96183 0.73862,-1.08921 2.3044,-1.7062 3.36555,-1.8392 1.10118,-0.13804 2.51661,1.02702 3.34184,1.21818 0.52642,0.12193 0.98702,-1.47125 2.10941,-1.76755 0.91711,-0.2421 1.9405,-0.28903 2.84412,0 0.62676,0.20049 0.96113,1.0498 1.61168,1.14652 0.98863,0.14696 2.20383,-0.18223 2.84416,-0.95543 z"
         id="path2-5"
         sodipodi:nodetypes="sssssssssssscsssssssscssssssssssssssssssscccssssssssssssssssssssssscssssss" />
    </g>
    <text
       xml:space="preserve"
       style="font-style:normal;font-variant:normal;font-weight:normal;font-stretch:normal;font-size:29.5668px;line-height:53.2204px;font-family:Chopsic;-inkscape-font-specification:Chopsic;text-align:center;text-anchor:middle;fill:#000000;fill-rule:evenodd;stroke-width:10.4764;filter:url(#filter2);opacity:1"
       x="190.60982"
       y="86.374031"
       id="text2-5"
       transform="matrix(0.80358049,0,0,1.2444304,38.95082,3.7868852)"><tspan
         sodipodi:role="line"
         id="tspan2-0"
         style="font-style:normal;font-variant:normal;font-weight:normal;font-stretch:normal;font-family:Chopsic;-inkscape-font-specification:Chopsic;fill:#000000;stroke-width:10.4764"
         x="190.60982"
         y="86.374031">FITNESSTAN</tspan></text>
    <text
       xml:space="preserve"
       style="font-style:normal;font-variant:normal;font-weight:normal;font-stretch:normal;font-size:29.5668px;line-height:53.2204px;font-family:Chopsic;-inkscape-font-specification:Chopsic;text-align:center;text-anchor:middle;fill:#ff0000;fill-rule:evenodd;stroke-width:10.4764"
       x="239.89658"
       y="89.554695"
       id="text2"
       transform="scale(0.80358049,1.2444304)"><tspan
         sodipodi:role="line"
         id="tspan2"
         style="font-style:normal;font-variant:normal;font-weight:normal;font-stretch:normal;font-family:Chopsic;-inkscape-font-specification:Chopsic;fill:#ff0000;stroke-width:10.4764"
         x="239.89658"
         y="89.554695">FITNESSTAN</tspan></text>
  </g>
</svg>
