<?xml version="1.0" encoding="UTF-8" standalone="no"?>
<!-- Created with Inkscape (http://www.inkscape.org/) -->

<svg
   width="210mm"
   height="297mm"
   viewBox="0 0 210 297"
   version="1.1"
   id="svg1"
   inkscape:version="1.3.2 (091e20e, 2023-11-25, custom)"
   sodipodi:docname="FITNESSTAN INVERT.svg"
   xmlns:inkscape="http://www.inkscape.org/namespaces/inkscape"
   xmlns:sodipodi="http://sodipodi.sourceforge.net/DTD/sodipodi-0.dtd"
   xmlns="http://www.w3.org/2000/svg"
   xmlns:svg="http://www.w3.org/2000/svg">
  <sodipodi:namedview
     id="namedview1"
     pagecolor="#505050"
     bordercolor="#eeeeee"
     borderopacity="1"
     inkscape:showpageshadow="0"
     inkscape:pageopacity="0"
     inkscape:pagecheckerboard="0"
     inkscape:deskcolor="#505050"
     inkscape:document-units="mm"
     inkscape:zoom="0.48907828"
     inkscape:cx="375.19556"
     inkscape:cy="608.28708"
     inkscape:window-width="1366"
     inkscape:window-height="745"
     inkscape:window-x="-8"
     inkscape:window-y="-8"
     inkscape:window-maximized="1"
     inkscape:current-layer="layer1" />
  <defs
     id="defs1">
    <filter
       inkscape:collect="always"
       style="color-interpolation-filters:sRGB"
       id="filter6"
       x="-0.031045477"
       y="-0.03077555"
       width="1.062091"
       height="1.0615511">
      <feGaussianBlur
         inkscape:collect="always"
         stdDeviation="1.1322592"
         id="feGaussianBlur6" />
    </filter>
    <filter
       inkscape:collect="always"
       style="color-interpolation-filters:sRGB"
       id="filter7"
       x="-0.027013886"
       y="-0.026765269"
       width="1.0540278"
       height="1.0535305">
      <feGaussianBlur
         inkscape:collect="always"
         stdDeviation="0.93740865"
         id="feGaussianBlur7" />
    </filter>
    <clipPath
       clipPathUnits="userSpaceOnUse"
       id="clipPath3">
      <path
         style="fill:#ffffff;fill-rule:evenodd;stroke-width:0.499999"
         d="m 77.368898,151.8139 7.497601,-6.87979 27.757091,-0.9173 5.58332,7.56776 v 7.10911 l -26.002325,-0.68797 v 2.06393 h 0.957143 l -2.711908,16.97013 -3.349986,29.35375 -10.688076,1.14663 2.552374,-32.79364 H 75.61414 l 0.957138,-6.42113 2.711902,-0.68798 1.595232,-8.7144 -7.019033,-2.06393 z"
         id="path4" />
    </clipPath>
    <filter
       inkscape:collect="always"
       style="color-interpolation-filters:sRGB"
       id="filter5"
       x="-0.062558116"
       y="-0.042092089"
       width="1.1251162"
       height="1.0841842">
      <feGaussianBlur
         inkscape:collect="always"
         stdDeviation="1.0434669"
         id="feGaussianBlur5" />
    </filter>
    <clipPath
       clipPathUnits="userSpaceOnUse"
       id="clipPath3-6">
      <path
         style="fill:#ffffff;fill-rule:evenodd;stroke-width:0.499999"
         d="m 77.368898,151.8139 7.497601,-6.87979 27.757091,-0.9173 5.58332,7.56776 v 7.10911 l -26.002325,-0.68797 v 2.06393 h 0.957143 l -2.711908,16.97013 -3.349986,29.35375 -10.688076,1.14663 2.552374,-32.79364 H 75.61414 l 0.957138,-6.42113 2.711902,-0.68798 1.595232,-8.7144 -7.019033,-2.06393 z"
         id="path4-8" />
    </clipPath>
    <filter
       inkscape:collect="always"
       style="color-interpolation-filters:sRGB"
       id="filter4"
       x="-0.099868462"
       y="-0.12469201"
       width="1.1997369"
       height="1.249384">
      <feGaussianBlur
         inkscape:collect="always"
         stdDeviation="2.179201"
         id="feGaussianBlur4" />
    </filter>
  </defs>
  <g
     inkscape:label="Layer 1"
     inkscape:groupmode="layer"
     id="layer1">
    <ellipse
       style="fill:#ffffff;fill-rule:evenodd;stroke-width:1.03437"
       id="path1"
       cx="109.43929"
       cy="144.38702"
       rx="94.963234"
       ry="95.754593" />
    <path
       id="path1-8-1"
       style="fill:#000000;fill-rule:evenodd;stroke-width:0.499999;filter:url(#filter6)"
       d="m 122.66284,108.52089 c -13.68118,0.15272 -27.109777,7.17981 -34.952849,18.40537 -7.14467,9.98812 -9.84808,23.01566 -7.232511,35.01819 2.54778,12.18745 10.494299,23.15401 21.38207,29.22853 9.14337,5.16679 20.18383,6.92928 30.45788,4.67924 11.77375,-2.47746 22.36665,-10.06832 28.44881,-20.4565 5.74779,-9.608 7.67905,-21.42445 5.21328,-32.35194 -2.2761,-10.46593 -8.4926,-20.03126 -17.21978,-26.25879 -7.52067,-5.45518 -16.79969,-8.43042 -26.0969,-8.2641 z"
       transform="matrix(2.0687363,0,0,2.0687363,-145.37872,-171.36572)" />
    <path
       id="path1-8"
       style="fill:#ff0000;fill-rule:evenodd;stroke-width:1.03437"
       d="M 108.12634,53.100257 C 79.823583,53.416195 52.043354,67.953391 35.818107,91.176114 21.037669,111.8389 15.445026,138.78945 20.855949,163.61952 c 5.270685,25.21262 21.709937,47.89954 44.233866,60.46612 18.915222,10.68872 41.755025,14.33485 63.009325,9.68011 24.35678,-5.12521 46.2707,-20.8287 58.85308,-42.3191 11.89066,-19.87642 15.88593,-44.32154 10.7849,-66.92764 C 193.02847,102.86776 180.16817,83.079618 162.11394,70.196501 146.55566,58.911172 127.35981,52.756185 108.12634,53.100257 Z" />
    <path
       id="path1-8-3-6"
       style="fill:#000000;fill-rule:evenodd;stroke-width:0.499999;filter:url(#filter7)"
       d="m 122.63396,110.86416 c -13.24552,0.15637 -26.259272,7.04374 -33.68794,18.03719 -6.720557,9.72134 -9.097637,22.32054 -6.30788,33.81106 2.765512,11.72249 10.772945,22.16649 21.56207,27.5997 8.95007,4.61445 19.61081,5.87905 29.35182,3.25425 10.30164,-2.6668 19.46895,-9.44257 24.97794,-18.55484 5.69904,-9.24785 7.63316,-20.726 5.23792,-31.32539 -2.27576,-10.5147 -8.79701,-20.02847 -17.79085,-25.93425 -6.86554,-4.54929 -15.10417,-7.00089 -23.34308,-6.88772 z"
       transform="matrix(2.0687363,0,0,2.0687363,-145.37872,-171.36572)" />
    <path
       id="path1-8-3"
       style="fill:#ffffff;fill-rule:evenodd;stroke-width:1.03437"
       d="M 108.41724,57.45592 C 81.015816,57.779408 54.093909,72.02756 38.725954,94.770109 24.822893,114.881 19.905342,140.94542 25.676613,164.71628 c 5.721115,24.25074 22.286383,45.85662 44.606185,57.0965 18.515232,9.54608 40.569472,12.1622 60.721052,6.73218 21.31136,-5.5169 40.2761,-19.53418 51.67275,-38.38507 11.78981,-19.13136 15.791,-42.87663 10.83588,-64.80397 C 188.80453,103.60378 175.31378,83.922297 156.7079,71.704796 142.50491,62.293515 125.46137,57.221801 108.41724,57.45592 Z" />
    <text
       xml:space="preserve"
       style="font-style:normal;font-variant:normal;font-weight:normal;font-stretch:normal;font-size:63.6741px;line-height:114.613px;font-family:Showdex;-inkscape-font-specification:Showdex;text-align:center;text-anchor:middle;fill:#000000;fill-rule:evenodd;stroke-width:22.5617;filter:url(#filter5)"
       x="95.248039"
       y="200.22878"
       id="text1"
       transform="matrix(3.1525077,0,0,2.111133,-196.78466,-230.93071)"
       clip-path="url(#clipPath3)"><tspan
         sodipodi:role="line"
         id="tspan1"
         style="font-style:normal;font-variant:normal;font-weight:normal;font-stretch:normal;font-family:Showdex;-inkscape-font-specification:Showdex;fill:#000000;stroke-width:22.5617"
         x="95.248039"
         y="200.22878">F</tspan></text>
    <text
       xml:space="preserve"
       style="font-style:normal;font-variant:normal;font-weight:normal;font-stretch:normal;font-size:63.6741px;line-height:114.613px;font-family:Showdex;-inkscape-font-specification:Showdex;text-align:center;text-anchor:middle;fill:#ff0000;fill-rule:evenodd;stroke-width:22.5617"
       x="95.248039"
       y="200.22878"
       id="text1-8"
       transform="matrix(3.1525077,0,0,2.111133,-197.43139,-231.06573)"
       clip-path="url(#clipPath3-6)"><tspan
         sodipodi:role="line"
         id="tspan1-2"
         style="font-style:normal;font-variant:normal;font-weight:normal;font-stretch:normal;font-family:Showdex;-inkscape-font-specification:Showdex;fill:#ff0000;stroke-width:22.5617"
         x="95.248039"
         y="200.22878">F</tspan></text>
    <path
       style="fill:#000000;fill-rule:evenodd;stroke-width:0.7037;filter:url(#filter4)"
       d="m 132.46887,147.41592 c 0.57271,-0.69159 0.40402,-1.77477 0.37922,-2.6752 -0.009,-0.32465 -0.0438,-0.66581 -0.18962,-0.95542 -0.23283,-0.4623 -0.87051,-0.65803 -1.04284,-1.14651 -0.18027,-0.51102 -0.37842,-1.3659 0.0947,-1.62423 0.22402,-0.12235 0.70981,0.63468 0.66364,0.38217 -0.02,-0.10992 -0.50892,-1.87712 -0.28442,-2.86629 0.21466,-0.94574 0.43899,-2.00775 1.13766,-2.67518 0.73283,-0.7001 1.83457,-1.0304 2.84413,-1.05097 0.92923,-0.0189 1.91814,0.28839 2.65452,0.85989 0.74314,0.57676 1.23478,1.48703 1.51687,2.38856 0.22829,0.72959 0.22278,1.53897 0.0947,2.29302 -0.0861,0.50714 -0.22816,1.18518 -0.56882,1.43314 0.19288,-0.32895 0.5061,-0.92144 0.85324,-0.76434 0.5189,0.23484 0.20513,1.18508 0,1.71976 -0.16939,0.4416 -0.76151,0.61646 -0.94804,1.05098 -0.47828,1.11418 -1.01381,2.6645 -0.28442,3.63062 0.6042,0.80029 1.94215,0.61918 2.93894,0.57326 1.01902,-0.0469 1.38502,-1.05851 3.47522,-1.13013 2.78867,-0.0955 2.88615,1.99975 3.94054,1.68699 1.17415,-0.34831 2.89666,-1.12541 3.86594,-0.93904 1.73882,0.33434 2.93893,2.19748 2.93893,2.19748 0,0 -0.75126,-1.49226 -0.78213,-2.38856 -0.0202,-0.58688 0.43293,-1.3244 0.40291,-1.91086 -0.072,-1.40808 -0.16173,-3.23289 -1.32725,-4.01279 -0.68652,-0.45939 -1.73276,0.57224 -2.46491,0.19109 -0.16372,-0.0852 -0.12197,-0.39008 -0.28441,-0.47771 -0.58576,-0.31595 -1.44004,0.46985 -1.9909,0.0955 -0.55518,-0.3773 -0.77274,-1.24504 -0.66363,-1.91086 0.15041,-0.91771 0.83188,-1.90038 1.70648,-2.19749 1.88852,-0.64152 4.22474,0.27674 5.78306,1.5287 2.50893,2.01565 3.49599,5.51331 4.4558,8.59882 0.60032,1.92991 1.82248,4.30436 0.75844,6.0192 -1.0438,1.68222 -3.66784,1.49808 -5.59346,1.91086 -1.67628,0.35931 -3.41013,0.6024 -5.11943,0.4777 -0.9403,-0.0685 -1.84179,-0.92612 -2.74932,-0.66879 -0.34417,0.0976 -0.57365,0.45589 -0.75844,0.76434 -0.49594,0.82786 -0.38688,1.92558 -0.85323,2.77074 -0.30485,0.55247 -0.92368,0.88287 -1.23245,1.43314 -0.75263,1.3413 -0.59659,3.09792 -1.42206,4.39496 -0.30184,0.47427 -1.03859,0.61803 -1.23246,1.14652 -0.56275,1.53394 0.56882,4.87268 0.56882,4.87268 l -6.82592,6.3058 -7.96355,-6.21026 c 0,0 1.14191,-3.62989 0.47402,-5.25485 -0.28335,-0.68941 -1.24675,-0.84817 -1.70646,-1.43316 -0.26324,-0.33494 -0.41514,-0.74828 -0.56884,-1.14649 -0.3336,-0.86433 -0.35719,-1.84058 -0.75843,-2.6752 -0.42445,-0.88293 -1.31422,-1.49064 -1.70648,-2.38857 -0.31214,-0.71458 0.0534,-1.72119 -0.47401,-2.29302 -0.15664,-0.16982 -0.43359,-0.19411 -0.66363,-0.19108 -1.15929,0.0153 -2.06399,0.56563 -3.22337,0.57325 -1.31968,0.009 -2.62776,-0.27067 -3.88696,-0.6688 -1.84027,-0.58187 -4.27739,-0.31085 -5.49865,-1.81531 -1.02754,-1.26581 -0.77587,-3.25061 -0.56881,-4.87268 0.19917,-1.56029 0.98205,-3.00145 1.70646,-4.39497 0.97214,-1.86998 1.82656,-3.99547 3.50776,-5.25483 1.46006,-1.0937 3.49164,-2.21375 5.21424,-1.62423 0.88006,0.30118 1.36395,1.39023 1.61167,2.29302 0.10978,0.40022 0.14913,0.90739 -0.0947,1.24205 -0.20149,0.27645 -0.61174,0.32935 -0.94804,0.38218 -0.43825,0.0688 -1.00266,-0.40013 -1.32727,-0.0955 -0.13878,0.13027 0.12254,0.42745 0,0.57325 -0.24849,0.29563 -0.7627,0.27669 -1.13765,0.19109 -0.37621,-0.0859 -0.57858,-0.78056 -0.94804,-0.6688 -1.56252,0.47262 -1.77833,2.94212 -1.80128,4.58604 -0.005,0.37274 0.32682,0.68197 0.37922,1.05097 0.13907,0.97935 0.16697,2.18405 -0.18961,2.96183 0.73862,-1.08921 2.3044,-1.7062 3.36555,-1.8392 1.10118,-0.13804 2.51661,1.02702 3.34184,1.21818 0.52642,0.12193 0.98702,-1.47125 2.10941,-1.76755 0.91711,-0.2421 1.9405,-0.28903 2.84412,0 0.62676,0.20049 0.96113,1.0498 1.61168,1.14652 0.98863,0.14696 2.20383,-0.18223 2.84416,-0.95543 z"
       id="path2"
       sodipodi:nodetypes="sssssssssssscsssssssscssssssssssssssssssscccssssssssssssssssssssssscssssss"
       transform="matrix(2.0687363,0,0,2.0687363,-145.37872,-171.36572)" />
    <path
       style="fill:#ff0000;fill-rule:evenodd;stroke-width:1.45577"
       d="m 128.5357,133.2365 c 1.18479,-1.43072 0.83581,-3.67153 0.78451,-5.53428 -0.0186,-0.67162 -0.0906,-1.37739 -0.39228,-1.97651 -0.48166,-0.95638 -1.80085,-1.36129 -2.15736,-2.37183 -0.37293,-1.05717 -0.78285,-2.82569 0.19591,-3.3601 0.46344,-0.25311 1.46841,1.31298 1.3729,0.79061 -0.0414,-0.2274 -1.05282,-3.88327 -0.58839,-5.9296 0.44407,-1.95649 0.90815,-4.15351 2.35352,-5.53424 1.51603,-1.44833 3.79524,-2.13163 5.88375,-2.17418 1.92233,-0.0391 3.96813,0.5966 5.4915,1.77888 1.53737,1.19317 2.55444,3.07627 3.13801,4.9413 0.47227,1.50933 0.46087,3.18373 0.19591,4.74366 -0.17812,1.04913 -0.472,2.45182 -1.17674,2.96478 0.39902,-0.68051 1.04699,-1.90621 1.76513,-1.58121 1.07347,0.48582 0.42436,2.45161 0,3.55773 -0.35043,0.91355 -1.57537,1.27529 -1.96125,2.1742 -0.98943,2.30494 -2.0973,5.51214 -0.58839,7.51079 1.24993,1.65559 4.0178,1.28092 6.0799,1.18593 2.10808,-0.097 2.86524,-2.18978 7.18931,-2.33794 5.76902,-0.19757 5.97068,4.13695 8.15194,3.48993 2.429,-0.72056 5.99242,-2.32817 7.99761,-1.94262 3.59716,0.69166 6.07987,4.546 6.07987,4.546 0,0 -1.55416,-3.08709 -1.61802,-4.9413 -0.0418,-1.2141 0.89562,-2.73983 0.83351,-3.95306 -0.14895,-2.91295 -0.33457,-6.688 -2.74573,-8.30141 -1.42023,-0.95035 -3.58462,1.18382 -5.09925,0.39532 -0.33869,-0.17626 -0.25232,-0.80698 -0.58837,-0.98826 -1.21178,-0.65362 -2.97906,0.972 -4.11864,0.19757 -1.14852,-0.78054 -1.5986,-2.57566 -1.37288,-3.95307 0.31116,-1.8985 1.72094,-3.93138 3.53026,-4.54603 3.90685,-1.32713 8.73987,0.5725 11.96362,3.16248 5.19032,4.16985 7.23229,11.40558 9.21788,17.78869 1.2419,3.99248 3.77023,8.90459 1.56901,12.45214 -2.15934,3.48007 -7.58779,3.09913 -11.57139,3.95306 -3.46778,0.74332 -7.05466,1.24621 -10.59075,0.98824 -1.94523,-0.14171 -3.81018,-1.9159 -5.68762,-1.38355 -0.712,0.20191 -1.18673,0.94312 -1.56901,1.58122 -1.02597,1.71262 -0.80036,3.98351 -1.76511,5.73193 -0.63065,1.14291 -1.91085,1.82642 -2.54961,2.96479 -1.557,2.77479 -1.23419,6.40878 -2.94187,9.09201 -0.62443,0.98114 -2.14857,1.27854 -2.54964,2.37185 -1.16418,3.17331 1.17674,10.08029 1.17674,10.08029 l -14.12103,13.04503 -16.47448,-12.84739 c 0,0 2.36231,-7.50928 0.98062,-10.87089 -0.58618,-1.42621 -2.5792,-1.75464 -3.53021,-2.96483 -0.54458,-0.69291 -0.85882,-1.548 -1.17678,-2.37179 -0.69013,-1.78807 -0.73894,-3.80767 -1.569,-5.53428 -0.87807,-1.82655 -2.71877,-3.08374 -3.53025,-4.94133 -0.64574,-1.47827 0.11047,-3.56068 -0.9806,-4.74365 -0.32405,-0.35131 -0.89699,-0.40156 -1.37288,-0.39529 -2.39827,0.0317 -4.26985,1.17014 -6.6683,1.1859 -2.73007,0.0186 -5.436145,-0.55994 -8.041098,-1.38357 -3.807033,-1.20374 -8.848792,-0.64307 -11.375257,-3.7554 -2.125709,-2.61863 -1.60507,-6.72465 -1.176718,-10.08029 0.41203,-3.22783 2.031603,-6.20921 3.530216,-9.09203 2.011101,-3.8685 3.778671,-8.26558 7.25663,-10.87086 3.02048,-2.26258 7.223287,-4.57966 10.786887,-3.3601 1.82061,0.62306 2.82165,2.87602 3.33412,4.74365 0.22711,0.82795 0.30851,1.87715 -0.19591,2.56947 -0.41683,0.57191 -1.26553,0.68134 -1.96124,0.79063 -0.90663,0.14233 -2.07424,-0.82776 -2.74577,-0.19756 -0.2871,0.26949 0.2535,0.88428 0,1.1859 -0.51406,0.61158 -1.57783,0.5724 -2.3535,0.39532 -0.778282,-0.17771 -1.196932,-1.61478 -1.961247,-1.38357 -3.232442,0.97772 -3.678896,6.08647 -3.726373,9.4873 -0.01034,0.7711 0.676104,1.41082 0.784506,2.17418 0.287699,2.02602 0.345417,4.51823 -0.392253,6.12725 1.52801,-2.25329 4.767196,-3.52968 6.962437,-3.80482 2.27805,-0.28557 5.2062,2.12463 6.91338,2.52009 1.08903,0.25224 2.04189,-3.04363 4.36382,-3.65659 1.89726,-0.50084 4.01438,-0.59793 5.88373,0 1.2966,0.41476 1.98833,2.17176 3.33414,2.37185 2.04522,0.30402 4.55915,-0.37699 5.88382,-1.97654 z"
       id="path2-5"
       sodipodi:nodetypes="sssssssssssscsssssssscssssssssssssssssssscccssssssssssssssssssssssscssssss" />
  </g>
</svg>
